<mxfile host="app.diagrams.net" modified="2023-06-16T00:57:05.508Z" agent="Mozilla/5.0 (Windows NT 10.0; Win64; x64) AppleWebKit/537.36 (KHTML, like Gecko) Chrome/114.0.0.0 Safari/537.36" etag="Ani0-67VmLHAQEt1svDe" version="21.4.0" type="device">
  <diagram name="Страница 1" id="FGNwjb8udXh6xGsjMSw3">
    <mxGraphModel dx="2311" dy="934" grid="1" gridSize="10" guides="1" tooltips="1" connect="1" arrows="1" fold="1" page="1" pageScale="1" pageWidth="1169" pageHeight="827" math="0" shadow="0">
      <root>
        <mxCell id="0" />
        <mxCell id="1" parent="0" />
        <mxCell id="N30j9sFZwslhafdUZV9N-3" value="Заказ" style="whiteSpace=wrap;html=1;align=center;" parent="1" vertex="1">
          <mxGeometry x="283" y="298" width="100" height="40" as="geometry" />
        </mxCell>
        <mxCell id="N30j9sFZwslhafdUZV9N-5" value="Стол" style="shape=parallelogram;perimeter=parallelogramPerimeter;whiteSpace=wrap;html=1;fixedSize=1;fontStyle=0;" parent="1" vertex="1">
          <mxGeometry x="126" y="560" width="100" height="40" as="geometry" />
        </mxCell>
        <mxCell id="N30j9sFZwslhafdUZV9N-23" value="Статус" style="ellipse;whiteSpace=wrap;html=1;align=center;" parent="1" vertex="1">
          <mxGeometry x="36" y="410" width="90" height="35" as="geometry" />
        </mxCell>
        <mxCell id="N30j9sFZwslhafdUZV9N-31" value="Номер стола" style="ellipse;whiteSpace=wrap;html=1;align=center;fontStyle=4" parent="1" vertex="1">
          <mxGeometry x="170" y="680" width="90" height="30" as="geometry" />
        </mxCell>
        <mxCell id="N30j9sFZwslhafdUZV9N-32" value="" style="endArrow=none;html=1;rounded=0;" parent="1" source="N30j9sFZwslhafdUZV9N-5" target="N30j9sFZwslhafdUZV9N-31" edge="1">
          <mxGeometry relative="1" as="geometry">
            <mxPoint x="124" y="622" as="sourcePoint" />
            <mxPoint x="284" y="622" as="targetPoint" />
          </mxGeometry>
        </mxCell>
        <mxCell id="N30j9sFZwslhafdUZV9N-33" value="Статус (свободен/забронирован)" style="ellipse;whiteSpace=wrap;html=1;align=center;fontStyle=0" parent="1" vertex="1">
          <mxGeometry x="17.5" y="640" width="119" height="50" as="geometry" />
        </mxCell>
        <mxCell id="N30j9sFZwslhafdUZV9N-39" value="" style="endArrow=none;html=1;rounded=0;" parent="1" source="N30j9sFZwslhafdUZV9N-5" target="N30j9sFZwslhafdUZV9N-33" edge="1">
          <mxGeometry relative="1" as="geometry">
            <mxPoint x="124" y="622" as="sourcePoint" />
            <mxPoint x="284" y="622" as="targetPoint" />
          </mxGeometry>
        </mxCell>
        <mxCell id="N30j9sFZwslhafdUZV9N-40" value="" style="endArrow=none;html=1;rounded=0;" parent="1" source="N30j9sFZwslhafdUZV9N-23" target="N30j9sFZwslhafdUZV9N-3" edge="1">
          <mxGeometry relative="1" as="geometry">
            <mxPoint x="403" y="243" as="sourcePoint" />
            <mxPoint x="563" y="243" as="targetPoint" />
          </mxGeometry>
        </mxCell>
        <mxCell id="N30j9sFZwslhafdUZV9N-78" value="Паспортные данные" style="ellipse;whiteSpace=wrap;html=1;align=center;" parent="1" vertex="1">
          <mxGeometry x="810" y="368" width="100" height="40" as="geometry" />
        </mxCell>
        <mxCell id="N30j9sFZwslhafdUZV9N-99" value="" style="endArrow=none;html=1;rounded=0;" parent="1" source="Y82aZck7Xs4e-HQAe_K5-1" target="N30j9sFZwslhafdUZV9N-78" edge="1">
          <mxGeometry relative="1" as="geometry">
            <mxPoint x="695" y="439.75" as="sourcePoint" />
            <mxPoint x="855" y="439.75" as="targetPoint" />
          </mxGeometry>
        </mxCell>
        <mxCell id="N30j9sFZwslhafdUZV9N-104" value="Количество" style="ellipse;whiteSpace=wrap;html=1;align=center;" parent="1" vertex="1">
          <mxGeometry x="340" y="386.5" width="100" height="40" as="geometry" />
        </mxCell>
        <mxCell id="N30j9sFZwslhafdUZV9N-105" value="Код заказа" style="ellipse;whiteSpace=wrap;html=1;align=center;fontStyle=4" parent="1" vertex="1">
          <mxGeometry x="260" y="479.5" width="100" height="40" as="geometry" />
        </mxCell>
        <mxCell id="N30j9sFZwslhafdUZV9N-106" value="Дата и время" style="ellipse;whiteSpace=wrap;html=1;align=center;" parent="1" vertex="1">
          <mxGeometry x="31" y="343" width="100" height="40" as="geometry" />
        </mxCell>
        <mxCell id="N30j9sFZwslhafdUZV9N-107" value="" style="endArrow=none;html=1;rounded=0;" parent="1" source="N30j9sFZwslhafdUZV9N-106" target="N30j9sFZwslhafdUZV9N-3" edge="1">
          <mxGeometry relative="1" as="geometry">
            <mxPoint x="525" y="363" as="sourcePoint" />
            <mxPoint x="685" y="363" as="targetPoint" />
          </mxGeometry>
        </mxCell>
        <mxCell id="N30j9sFZwslhafdUZV9N-108" value="" style="endArrow=none;html=1;rounded=0;" parent="1" source="N30j9sFZwslhafdUZV9N-3" target="N30j9sFZwslhafdUZV9N-104" edge="1">
          <mxGeometry relative="1" as="geometry">
            <mxPoint x="525" y="363" as="sourcePoint" />
            <mxPoint x="400" y="400" as="targetPoint" />
          </mxGeometry>
        </mxCell>
        <mxCell id="N30j9sFZwslhafdUZV9N-109" value="" style="endArrow=none;html=1;rounded=0;" parent="1" source="N30j9sFZwslhafdUZV9N-105" target="N30j9sFZwslhafdUZV9N-3" edge="1">
          <mxGeometry relative="1" as="geometry">
            <mxPoint x="525" y="363" as="sourcePoint" />
            <mxPoint x="685" y="363" as="targetPoint" />
          </mxGeometry>
        </mxCell>
        <mxCell id="N30j9sFZwslhafdUZV9N-113" value="" style="endArrow=none;html=1;rounded=0;" parent="1" source="N30j9sFZwslhafdUZV9N-5" target="N30j9sFZwslhafdUZV9N-3" edge="1">
          <mxGeometry relative="1" as="geometry">
            <mxPoint x="525" y="263" as="sourcePoint" />
            <mxPoint x="685" y="263" as="targetPoint" />
          </mxGeometry>
        </mxCell>
        <mxCell id="N30j9sFZwslhafdUZV9N-119" value="Блюдо" style="rounded=0;whiteSpace=wrap;html=1;" parent="1" vertex="1">
          <mxGeometry x="292" y="166" width="100" height="40" as="geometry" />
        </mxCell>
        <mxCell id="N30j9sFZwslhafdUZV9N-124" value="Код блюда" style="ellipse;whiteSpace=wrap;html=1;align=center;" parent="1" vertex="1">
          <mxGeometry x="45.5" y="288" width="100" height="40" as="geometry" />
        </mxCell>
        <mxCell id="N30j9sFZwslhafdUZV9N-125" value="" style="endArrow=none;html=1;rounded=0;" parent="1" source="N30j9sFZwslhafdUZV9N-124" target="N30j9sFZwslhafdUZV9N-3" edge="1">
          <mxGeometry relative="1" as="geometry">
            <mxPoint x="525" y="263" as="sourcePoint" />
            <mxPoint x="685" y="263" as="targetPoint" />
          </mxGeometry>
        </mxCell>
        <mxCell id="N30j9sFZwslhafdUZV9N-127" value="Название" style="ellipse;whiteSpace=wrap;html=1;align=center;fontStyle=0" parent="1" vertex="1">
          <mxGeometry x="110" y="233" width="80" height="30" as="geometry" />
        </mxCell>
        <mxCell id="N30j9sFZwslhafdUZV9N-128" value="" style="endArrow=none;html=1;rounded=0;" parent="1" source="N30j9sFZwslhafdUZV9N-127" target="N30j9sFZwslhafdUZV9N-119" edge="1">
          <mxGeometry relative="1" as="geometry">
            <mxPoint x="525" y="263" as="sourcePoint" />
            <mxPoint x="685" y="263" as="targetPoint" />
          </mxGeometry>
        </mxCell>
        <mxCell id="N30j9sFZwslhafdUZV9N-130" value="Тип ингредиента" style="ellipse;whiteSpace=wrap;html=1;align=center;fontStyle=0" parent="1" vertex="1">
          <mxGeometry x="237" y="16" width="90" height="50" as="geometry" />
        </mxCell>
        <mxCell id="N30j9sFZwslhafdUZV9N-132" value="Объем" style="ellipse;whiteSpace=wrap;html=1;align=center;" parent="1" vertex="1">
          <mxGeometry x="203" y="248" width="80" height="40" as="geometry" />
        </mxCell>
        <mxCell id="N30j9sFZwslhafdUZV9N-134" value="" style="endArrow=none;html=1;rounded=0;" parent="1" source="N30j9sFZwslhafdUZV9N-132" target="N30j9sFZwslhafdUZV9N-119" edge="1">
          <mxGeometry relative="1" as="geometry">
            <mxPoint x="525" y="263" as="sourcePoint" />
            <mxPoint x="685" y="263" as="targetPoint" />
          </mxGeometry>
        </mxCell>
        <mxCell id="N30j9sFZwslhafdUZV9N-135" value="" style="endArrow=none;html=1;rounded=0;" parent="1" source="N30j9sFZwslhafdUZV9N-130" target="FxkLSMrradobIDmeh1Es-46" edge="1">
          <mxGeometry relative="1" as="geometry">
            <mxPoint x="525" y="263" as="sourcePoint" />
            <mxPoint x="685" y="263" as="targetPoint" />
          </mxGeometry>
        </mxCell>
        <mxCell id="N30j9sFZwslhafdUZV9N-142" value="Цена" style="ellipse;whiteSpace=wrap;html=1;align=center;" parent="1" vertex="1">
          <mxGeometry x="297" y="233" width="90" height="40" as="geometry" />
        </mxCell>
        <mxCell id="N30j9sFZwslhafdUZV9N-143" value="" style="endArrow=none;html=1;rounded=0;" parent="1" source="N30j9sFZwslhafdUZV9N-119" target="N30j9sFZwslhafdUZV9N-142" edge="1">
          <mxGeometry relative="1" as="geometry">
            <mxPoint x="525" y="263" as="sourcePoint" />
            <mxPoint x="685" y="263" as="targetPoint" />
          </mxGeometry>
        </mxCell>
        <mxCell id="N30j9sFZwslhafdUZV9N-144" value="Номер стола" style="ellipse;whiteSpace=wrap;html=1;align=center;" parent="1" vertex="1">
          <mxGeometry x="100" y="445" width="80" height="41.75" as="geometry" />
        </mxCell>
        <mxCell id="N30j9sFZwslhafdUZV9N-145" value="" style="endArrow=none;html=1;rounded=0;" parent="1" source="N30j9sFZwslhafdUZV9N-144" target="N30j9sFZwslhafdUZV9N-3" edge="1">
          <mxGeometry relative="1" as="geometry">
            <mxPoint x="525" y="263" as="sourcePoint" />
            <mxPoint x="685" y="263" as="targetPoint" />
          </mxGeometry>
        </mxCell>
        <mxCell id="N30j9sFZwslhafdUZV9N-146" value="Код блюда" style="ellipse;whiteSpace=wrap;html=1;align=center;fontStyle=4" parent="1" vertex="1">
          <mxGeometry x="312" y="108" width="80" height="40" as="geometry" />
        </mxCell>
        <mxCell id="N30j9sFZwslhafdUZV9N-147" value="" style="endArrow=none;html=1;rounded=0;" parent="1" source="N30j9sFZwslhafdUZV9N-119" target="N30j9sFZwslhafdUZV9N-146" edge="1">
          <mxGeometry relative="1" as="geometry">
            <mxPoint x="525" y="263" as="sourcePoint" />
            <mxPoint x="685" y="263" as="targetPoint" />
          </mxGeometry>
        </mxCell>
        <mxCell id="N30j9sFZwslhafdUZV9N-154" value="Дата закупки" style="ellipse;whiteSpace=wrap;html=1;align=center;fontStyle=0" parent="1" vertex="1">
          <mxGeometry x="872.5" y="273" width="100" height="40" as="geometry" />
        </mxCell>
        <mxCell id="N30j9sFZwslhafdUZV9N-155" value="Объем закупки" style="ellipse;whiteSpace=wrap;html=1;align=center;fontStyle=0" parent="1" vertex="1">
          <mxGeometry x="620" y="26" width="100" height="40" as="geometry" />
        </mxCell>
        <mxCell id="N30j9sFZwslhafdUZV9N-159" value="Цена" style="ellipse;whiteSpace=wrap;html=1;align=center;fontStyle=0" parent="1" vertex="1">
          <mxGeometry x="740" y="16" width="100" height="40" as="geometry" />
        </mxCell>
        <mxCell id="N30j9sFZwslhafdUZV9N-176" value="" style="endArrow=none;html=1;rounded=0;" parent="1" source="EzKpJZm47mHmIY9EPi6W-1" target="N30j9sFZwslhafdUZV9N-159" edge="1">
          <mxGeometry relative="1" as="geometry">
            <mxPoint x="667.5" y="519" as="sourcePoint" />
            <mxPoint x="827.5" y="519" as="targetPoint" />
          </mxGeometry>
        </mxCell>
        <mxCell id="N30j9sFZwslhafdUZV9N-177" value="" style="endArrow=none;html=1;rounded=0;" parent="1" source="9Dlz0vJ4_yE0FrE6_wMp-16" target="N30j9sFZwslhafdUZV9N-154" edge="1">
          <mxGeometry relative="1" as="geometry">
            <mxPoint x="667.5" y="519" as="sourcePoint" />
            <mxPoint x="827.5" y="519" as="targetPoint" />
          </mxGeometry>
        </mxCell>
        <mxCell id="N30j9sFZwslhafdUZV9N-194" value="Поставщик" style="ellipse;whiteSpace=wrap;html=1;align=center;fontStyle=0" parent="1" vertex="1">
          <mxGeometry x="990" y="228" width="100" height="40" as="geometry" />
        </mxCell>
        <mxCell id="N30j9sFZwslhafdUZV9N-195" value="" style="endArrow=none;html=1;rounded=0;" parent="1" source="N30j9sFZwslhafdUZV9N-194" target="9Dlz0vJ4_yE0FrE6_wMp-16" edge="1">
          <mxGeometry relative="1" as="geometry">
            <mxPoint x="667.5" y="419" as="sourcePoint" />
            <mxPoint x="827.5" y="419" as="targetPoint" />
          </mxGeometry>
        </mxCell>
        <mxCell id="N30j9sFZwslhafdUZV9N-196" value="" style="endArrow=none;html=1;rounded=0;" parent="1" source="EzKpJZm47mHmIY9EPi6W-1" target="N30j9sFZwslhafdUZV9N-155" edge="1">
          <mxGeometry relative="1" as="geometry">
            <mxPoint x="667.5" y="419" as="sourcePoint" />
            <mxPoint x="827.5" y="419" as="targetPoint" />
          </mxGeometry>
        </mxCell>
        <mxCell id="FxkLSMrradobIDmeh1Es-4" value="Смена" style="whiteSpace=wrap;html=1;align=center;" parent="1" vertex="1">
          <mxGeometry x="360" y="655.75" width="93" height="43.5" as="geometry" />
        </mxCell>
        <mxCell id="FxkLSMrradobIDmeh1Es-16" value="Дата смены" style="ellipse;whiteSpace=wrap;html=1;align=center;fontStyle=0" parent="1" vertex="1">
          <mxGeometry x="376.5" y="773.5" width="100" height="40" as="geometry" />
        </mxCell>
        <mxCell id="FxkLSMrradobIDmeh1Es-17" value="" style="endArrow=none;html=1;rounded=0;" parent="1" source="FxkLSMrradobIDmeh1Es-16" target="FxkLSMrradobIDmeh1Es-4" edge="1">
          <mxGeometry relative="1" as="geometry">
            <mxPoint x="450" y="713.5" as="sourcePoint" />
            <mxPoint x="610" y="713.5" as="targetPoint" />
          </mxGeometry>
        </mxCell>
        <mxCell id="FxkLSMrradobIDmeh1Es-25" value="Список должностей" style="shape=parallelogram;perimeter=parallelogramPerimeter;whiteSpace=wrap;html=1;fixedSize=1;" parent="1" vertex="1">
          <mxGeometry x="850" y="586.75" width="110" height="39.5" as="geometry" />
        </mxCell>
        <mxCell id="FxkLSMrradobIDmeh1Es-28" value="Должность" style="ellipse;whiteSpace=wrap;html=1;align=center;fontStyle=4" parent="1" vertex="1">
          <mxGeometry x="760" y="660" width="90" height="31.25" as="geometry" />
        </mxCell>
        <mxCell id="FxkLSMrradobIDmeh1Es-29" value="" style="endArrow=none;html=1;rounded=0;" parent="1" source="FxkLSMrradobIDmeh1Es-25" target="FxkLSMrradobIDmeh1Es-28" edge="1">
          <mxGeometry relative="1" as="geometry">
            <mxPoint x="650" y="556.75" as="sourcePoint" />
            <mxPoint x="810" y="556.75" as="targetPoint" />
          </mxGeometry>
        </mxCell>
        <mxCell id="FxkLSMrradobIDmeh1Es-30" value="Категория" style="ellipse;whiteSpace=wrap;html=1;align=center;fontStyle=0" parent="1" vertex="1">
          <mxGeometry x="945" y="655.75" width="100" height="40" as="geometry" />
        </mxCell>
        <mxCell id="FxkLSMrradobIDmeh1Es-31" value="" style="endArrow=none;html=1;rounded=0;" parent="1" source="FxkLSMrradobIDmeh1Es-25" target="FxkLSMrradobIDmeh1Es-30" edge="1">
          <mxGeometry relative="1" as="geometry">
            <mxPoint x="650" y="556.75" as="sourcePoint" />
            <mxPoint x="810" y="556.75" as="targetPoint" />
          </mxGeometry>
        </mxCell>
        <mxCell id="FxkLSMrradobIDmeh1Es-32" value="Оклад" style="ellipse;whiteSpace=wrap;html=1;align=center;" parent="1" vertex="1">
          <mxGeometry x="972.5" y="561.75" width="100" height="40" as="geometry" />
        </mxCell>
        <mxCell id="FxkLSMrradobIDmeh1Es-33" value="" style="endArrow=none;html=1;rounded=0;" parent="1" source="FxkLSMrradobIDmeh1Es-25" target="FxkLSMrradobIDmeh1Es-32" edge="1">
          <mxGeometry relative="1" as="geometry">
            <mxPoint x="650" y="556.75" as="sourcePoint" />
            <mxPoint x="810" y="556.75" as="targetPoint" />
          </mxGeometry>
        </mxCell>
        <mxCell id="FxkLSMrradobIDmeh1Es-34" value="Состав заказа" style="shape=rhombus;perimeter=rhombusPerimeter;whiteSpace=wrap;html=1;align=center;" parent="1" vertex="1">
          <mxGeometry x="480" y="298" width="120" height="60" as="geometry" />
        </mxCell>
        <mxCell id="FxkLSMrradobIDmeh1Es-35" value="" style="endArrow=none;html=1;rounded=0;" parent="1" source="N30j9sFZwslhafdUZV9N-119" target="FxkLSMrradobIDmeh1Es-34" edge="1">
          <mxGeometry relative="1" as="geometry">
            <mxPoint x="480" y="300" as="sourcePoint" />
            <mxPoint x="640" y="300" as="targetPoint" />
          </mxGeometry>
        </mxCell>
        <mxCell id="FxkLSMrradobIDmeh1Es-36" value="" style="endArrow=none;html=1;rounded=0;" parent="1" source="N30j9sFZwslhafdUZV9N-3" target="FxkLSMrradobIDmeh1Es-34" edge="1">
          <mxGeometry relative="1" as="geometry">
            <mxPoint x="480" y="300" as="sourcePoint" />
            <mxPoint x="640" y="300" as="targetPoint" />
          </mxGeometry>
        </mxCell>
        <mxCell id="FxkLSMrradobIDmeh1Es-37" value="Код блюда" style="ellipse;whiteSpace=wrap;html=1;align=center;fontStyle=4" parent="1" vertex="1">
          <mxGeometry x="426.5" y="206" width="80" height="40" as="geometry" />
        </mxCell>
        <mxCell id="FxkLSMrradobIDmeh1Es-38" value="" style="endArrow=none;html=1;rounded=0;" parent="1" source="FxkLSMrradobIDmeh1Es-34" target="FxkLSMrradobIDmeh1Es-37" edge="1">
          <mxGeometry relative="1" as="geometry">
            <mxPoint x="480" y="300" as="sourcePoint" />
            <mxPoint x="640" y="300" as="targetPoint" />
          </mxGeometry>
        </mxCell>
        <mxCell id="FxkLSMrradobIDmeh1Es-40" value="Количество блюд" style="ellipse;whiteSpace=wrap;html=1;align=center;" parent="1" vertex="1">
          <mxGeometry x="510" y="210" width="90" height="46" as="geometry" />
        </mxCell>
        <mxCell id="FxkLSMrradobIDmeh1Es-41" value="" style="endArrow=none;html=1;rounded=0;" parent="1" source="FxkLSMrradobIDmeh1Es-34" target="FxkLSMrradobIDmeh1Es-40" edge="1">
          <mxGeometry relative="1" as="geometry">
            <mxPoint x="480" y="300" as="sourcePoint" />
            <mxPoint x="640" y="300" as="targetPoint" />
          </mxGeometry>
        </mxCell>
        <mxCell id="FxkLSMrradobIDmeh1Es-42" value="Код заказа" style="ellipse;whiteSpace=wrap;html=1;align=center;fontStyle=4" parent="1" vertex="1">
          <mxGeometry x="590" y="248" width="100" height="40" as="geometry" />
        </mxCell>
        <mxCell id="FxkLSMrradobIDmeh1Es-43" value="" style="endArrow=none;html=1;rounded=0;" parent="1" source="FxkLSMrradobIDmeh1Es-34" target="FxkLSMrradobIDmeh1Es-42" edge="1">
          <mxGeometry relative="1" as="geometry">
            <mxPoint x="480" y="300" as="sourcePoint" />
            <mxPoint x="640" y="300" as="targetPoint" />
          </mxGeometry>
        </mxCell>
        <mxCell id="FxkLSMrradobIDmeh1Es-44" value="Состав блюда" style="shape=rhombus;perimeter=rhombusPerimeter;whiteSpace=wrap;html=1;align=center;" parent="1" vertex="1">
          <mxGeometry x="136.5" y="66" width="120" height="60" as="geometry" />
        </mxCell>
        <mxCell id="FxkLSMrradobIDmeh1Es-45" value="" style="endArrow=none;html=1;rounded=0;" parent="1" source="FxkLSMrradobIDmeh1Es-44" target="N30j9sFZwslhafdUZV9N-119" edge="1">
          <mxGeometry relative="1" as="geometry">
            <mxPoint x="480" y="300" as="sourcePoint" />
            <mxPoint x="640" y="300" as="targetPoint" />
          </mxGeometry>
        </mxCell>
        <mxCell id="FxkLSMrradobIDmeh1Es-46" value="Ингредиент" style="rounded=0;whiteSpace=wrap;html=1;" parent="1" vertex="1">
          <mxGeometry x="515.5" y="60" width="89" height="43" as="geometry" />
        </mxCell>
        <mxCell id="FxkLSMrradobIDmeh1Es-47" value="" style="endArrow=none;html=1;rounded=0;" parent="1" source="FxkLSMrradobIDmeh1Es-46" target="FxkLSMrradobIDmeh1Es-44" edge="1">
          <mxGeometry relative="1" as="geometry">
            <mxPoint x="480" y="100" as="sourcePoint" />
            <mxPoint x="640" y="100" as="targetPoint" />
          </mxGeometry>
        </mxCell>
        <mxCell id="FxkLSMrradobIDmeh1Es-48" value="Название ингредиента" style="ellipse;whiteSpace=wrap;html=1;align=center;fontStyle=0" parent="1" vertex="1">
          <mxGeometry x="417" y="103.5" width="90" height="50" as="geometry" />
        </mxCell>
        <mxCell id="FxkLSMrradobIDmeh1Es-49" value="" style="endArrow=none;html=1;rounded=0;" parent="1" source="FxkLSMrradobIDmeh1Es-48" target="FxkLSMrradobIDmeh1Es-46" edge="1">
          <mxGeometry relative="1" as="geometry">
            <mxPoint x="480" y="100" as="sourcePoint" />
            <mxPoint x="640" y="100" as="targetPoint" />
          </mxGeometry>
        </mxCell>
        <mxCell id="FxkLSMrradobIDmeh1Es-50" value="Цена" style="ellipse;whiteSpace=wrap;html=1;align=center;fontStyle=0" parent="1" vertex="1">
          <mxGeometry x="525" y="3" width="70" height="30" as="geometry" />
        </mxCell>
        <mxCell id="FxkLSMrradobIDmeh1Es-51" value="" style="endArrow=none;html=1;rounded=0;" parent="1" source="FxkLSMrradobIDmeh1Es-50" target="FxkLSMrradobIDmeh1Es-46" edge="1">
          <mxGeometry relative="1" as="geometry">
            <mxPoint x="340" y="100" as="sourcePoint" />
            <mxPoint x="500" y="100" as="targetPoint" />
          </mxGeometry>
        </mxCell>
        <mxCell id="FxkLSMrradobIDmeh1Es-52" value="Код ингредиента" style="ellipse;whiteSpace=wrap;html=1;align=center;fontStyle=4" parent="1" vertex="1">
          <mxGeometry x="13" y="60" width="87" height="40" as="geometry" />
        </mxCell>
        <mxCell id="FxkLSMrradobIDmeh1Es-53" value="" style="endArrow=none;html=1;rounded=0;" parent="1" source="FxkLSMrradobIDmeh1Es-52" target="FxkLSMrradobIDmeh1Es-44" edge="1">
          <mxGeometry relative="1" as="geometry">
            <mxPoint x="340" y="100" as="sourcePoint" />
            <mxPoint x="500" y="100" as="targetPoint" />
          </mxGeometry>
        </mxCell>
        <mxCell id="FxkLSMrradobIDmeh1Es-54" value="Количество ингредиентов" style="ellipse;whiteSpace=wrap;html=1;align=center;" parent="1" vertex="1">
          <mxGeometry x="26" y="126" width="100" height="40" as="geometry" />
        </mxCell>
        <mxCell id="FxkLSMrradobIDmeh1Es-55" value="" style="endArrow=none;html=1;rounded=0;" parent="1" source="FxkLSMrradobIDmeh1Es-54" target="FxkLSMrradobIDmeh1Es-44" edge="1">
          <mxGeometry relative="1" as="geometry">
            <mxPoint x="340" y="100" as="sourcePoint" />
            <mxPoint x="500" y="100" as="targetPoint" />
          </mxGeometry>
        </mxCell>
        <mxCell id="FxkLSMrradobIDmeh1Es-56" value="Код блюда" style="ellipse;whiteSpace=wrap;html=1;align=center;fontStyle=4" parent="1" vertex="1">
          <mxGeometry x="145.5" y="166" width="100" height="40" as="geometry" />
        </mxCell>
        <mxCell id="FxkLSMrradobIDmeh1Es-57" value="" style="endArrow=none;html=1;rounded=0;" parent="1" source="FxkLSMrradobIDmeh1Es-44" target="FxkLSMrradobIDmeh1Es-56" edge="1">
          <mxGeometry relative="1" as="geometry">
            <mxPoint x="340" y="200" as="sourcePoint" />
            <mxPoint x="500" y="200" as="targetPoint" />
          </mxGeometry>
        </mxCell>
        <mxCell id="9Dlz0vJ4_yE0FrE6_wMp-4" value="" style="endArrow=none;html=1;rounded=0;" parent="1" source="FxkLSMrradobIDmeh1Es-25" target="Y82aZck7Xs4e-HQAe_K5-1" edge="1">
          <mxGeometry relative="1" as="geometry">
            <mxPoint x="885" y="565" as="sourcePoint" />
            <mxPoint x="744.5711060948083" y="775.5" as="targetPoint" />
          </mxGeometry>
        </mxCell>
        <mxCell id="9Dlz0vJ4_yE0FrE6_wMp-16" value="Закупка" style="whiteSpace=wrap;html=1;align=center;" parent="1" vertex="1">
          <mxGeometry x="840" y="209" width="97.5" height="39" as="geometry" />
        </mxCell>
        <mxCell id="9Dlz0vJ4_yE0FrE6_wMp-19" value="Количество ингредиента" style="ellipse;whiteSpace=wrap;html=1;align=center;fontStyle=0" parent="1" vertex="1">
          <mxGeometry x="600" y="178" width="100" height="40" as="geometry" />
        </mxCell>
        <mxCell id="9Dlz0vJ4_yE0FrE6_wMp-20" value="" style="endArrow=none;html=1;rounded=0;" parent="1" source="EzKpJZm47mHmIY9EPi6W-1" target="9Dlz0vJ4_yE0FrE6_wMp-19" edge="1">
          <mxGeometry relative="1" as="geometry">
            <mxPoint x="732.5" y="196" as="sourcePoint" />
            <mxPoint x="892.5" y="196" as="targetPoint" />
          </mxGeometry>
        </mxCell>
        <mxCell id="9Dlz0vJ4_yE0FrE6_wMp-24" value="ID закупки" style="ellipse;whiteSpace=wrap;html=1;align=center;fontStyle=4" parent="1" vertex="1">
          <mxGeometry x="967.5" y="160.5" width="105" height="48.5" as="geometry" />
        </mxCell>
        <mxCell id="9Dlz0vJ4_yE0FrE6_wMp-25" value="" style="endArrow=none;html=1;rounded=0;" parent="1" source="9Dlz0vJ4_yE0FrE6_wMp-16" target="9Dlz0vJ4_yE0FrE6_wMp-24" edge="1">
          <mxGeometry relative="1" as="geometry">
            <mxPoint x="762.5" y="356" as="sourcePoint" />
            <mxPoint x="922.5" y="356" as="targetPoint" />
          </mxGeometry>
        </mxCell>
        <mxCell id="9Dlz0vJ4_yE0FrE6_wMp-40" value="1" style="text;html=1;align=center;verticalAlign=middle;resizable=0;points=[];autosize=1;strokeColor=none;fillColor=none;" parent="1" vertex="1">
          <mxGeometry x="292" y="333" width="30" height="30" as="geometry" />
        </mxCell>
        <mxCell id="9Dlz0vJ4_yE0FrE6_wMp-41" value="M" style="text;html=1;align=center;verticalAlign=middle;resizable=0;points=[];autosize=1;strokeColor=none;fillColor=none;" parent="1" vertex="1">
          <mxGeometry x="383" y="298" width="30" height="30" as="geometry" />
        </mxCell>
        <mxCell id="9Dlz0vJ4_yE0FrE6_wMp-42" value="M" style="text;html=1;align=center;verticalAlign=middle;resizable=0;points=[];autosize=1;strokeColor=none;fillColor=none;" parent="1" vertex="1">
          <mxGeometry x="383" y="200" width="30" height="30" as="geometry" />
        </mxCell>
        <mxCell id="9Dlz0vJ4_yE0FrE6_wMp-44" value="M" style="text;html=1;align=center;verticalAlign=middle;resizable=0;points=[];autosize=1;strokeColor=none;fillColor=none;" parent="1" vertex="1">
          <mxGeometry x="267" y="148" width="30" height="30" as="geometry" />
        </mxCell>
        <mxCell id="Y82aZck7Xs4e-HQAe_K5-1" value="Сотрудник" style="whiteSpace=wrap;html=1;align=center;" parent="1" vertex="1">
          <mxGeometry x="600" y="405" width="100" height="40" as="geometry" />
        </mxCell>
        <mxCell id="Y82aZck7Xs4e-HQAe_K5-4" value="ФИО сотрудника" style="ellipse;whiteSpace=wrap;html=1;align=center;" parent="1" vertex="1">
          <mxGeometry x="700" y="328" width="100" height="40" as="geometry" />
        </mxCell>
        <mxCell id="Y82aZck7Xs4e-HQAe_K5-5" value="" style="endArrow=none;html=1;rounded=0;" parent="1" source="Y82aZck7Xs4e-HQAe_K5-1" target="Y82aZck7Xs4e-HQAe_K5-4" edge="1">
          <mxGeometry relative="1" as="geometry">
            <mxPoint x="1070" y="596.75" as="sourcePoint" />
            <mxPoint x="1230" y="596.75" as="targetPoint" />
          </mxGeometry>
        </mxCell>
        <mxCell id="Y82aZck7Xs4e-HQAe_K5-7" value="Табельный номер" style="ellipse;whiteSpace=wrap;html=1;align=center;fontStyle=4" parent="1" vertex="1">
          <mxGeometry x="660" y="521.75" width="100" height="40" as="geometry" />
        </mxCell>
        <mxCell id="Y82aZck7Xs4e-HQAe_K5-9" value="" style="endArrow=none;html=1;rounded=0;" parent="1" source="Y82aZck7Xs4e-HQAe_K5-7" target="Y82aZck7Xs4e-HQAe_K5-1" edge="1">
          <mxGeometry relative="1" as="geometry">
            <mxPoint x="790" y="480" as="sourcePoint" />
            <mxPoint x="950" y="480" as="targetPoint" />
          </mxGeometry>
        </mxCell>
        <mxCell id="Y82aZck7Xs4e-HQAe_K5-10" value="Код ингредиента" style="ellipse;whiteSpace=wrap;html=1;align=center;fontStyle=4" parent="1" vertex="1">
          <mxGeometry x="370" y="6" width="100" height="40" as="geometry" />
        </mxCell>
        <mxCell id="Y82aZck7Xs4e-HQAe_K5-11" value="" style="endArrow=none;html=1;rounded=0;" parent="1" source="FxkLSMrradobIDmeh1Es-46" target="Y82aZck7Xs4e-HQAe_K5-10" edge="1">
          <mxGeometry relative="1" as="geometry">
            <mxPoint x="590" y="190" as="sourcePoint" />
            <mxPoint x="750" y="190" as="targetPoint" />
          </mxGeometry>
        </mxCell>
        <mxCell id="Y82aZck7Xs4e-HQAe_K5-13" value="Срок годности" style="ellipse;whiteSpace=wrap;html=1;align=center;" parent="1" vertex="1">
          <mxGeometry x="840" y="38" width="100" height="40" as="geometry" />
        </mxCell>
        <mxCell id="Y82aZck7Xs4e-HQAe_K5-16" value="" style="endArrow=none;html=1;rounded=0;" parent="1" source="Y82aZck7Xs4e-HQAe_K5-13" target="EzKpJZm47mHmIY9EPi6W-1" edge="1">
          <mxGeometry relative="1" as="geometry">
            <mxPoint x="557.5" y="203" as="sourcePoint" />
            <mxPoint x="717.5" y="203" as="targetPoint" />
          </mxGeometry>
        </mxCell>
        <mxCell id="Y82aZck7Xs4e-HQAe_K5-17" value="Калорийность" style="ellipse;whiteSpace=wrap;html=1;align=center;" parent="1" vertex="1">
          <mxGeometry x="510" y="136" width="100" height="40" as="geometry" />
        </mxCell>
        <mxCell id="Y82aZck7Xs4e-HQAe_K5-18" value="" style="endArrow=none;html=1;rounded=0;" parent="1" source="FxkLSMrradobIDmeh1Es-46" target="Y82aZck7Xs4e-HQAe_K5-17" edge="1">
          <mxGeometry relative="1" as="geometry">
            <mxPoint x="590" y="190" as="sourcePoint" />
            <mxPoint x="750" y="190" as="targetPoint" />
          </mxGeometry>
        </mxCell>
        <mxCell id="Y82aZck7Xs4e-HQAe_K5-24" value="" style="endArrow=none;html=1;rounded=0;" parent="1" source="FxkLSMrradobIDmeh1Es-46" target="EzKpJZm47mHmIY9EPi6W-1" edge="1">
          <mxGeometry width="50" height="50" relative="1" as="geometry">
            <mxPoint x="650" y="220" as="sourcePoint" />
            <mxPoint x="700" y="170" as="targetPoint" />
          </mxGeometry>
        </mxCell>
        <mxCell id="Y82aZck7Xs4e-HQAe_K5-26" value="M" style="text;html=1;align=center;verticalAlign=middle;resizable=0;points=[];autosize=1;strokeColor=none;fillColor=none;" parent="1" vertex="1">
          <mxGeometry x="170" y="536.75" width="30" height="30" as="geometry" />
        </mxCell>
        <mxCell id="Y82aZck7Xs4e-HQAe_K5-27" value="ID смены" style="ellipse;whiteSpace=wrap;html=1;align=center;fontStyle=4" parent="1" vertex="1">
          <mxGeometry x="480" y="725.25" width="100" height="40" as="geometry" />
        </mxCell>
        <mxCell id="Y82aZck7Xs4e-HQAe_K5-28" value="Номер смены" style="ellipse;whiteSpace=wrap;html=1;align=center;" parent="1" vertex="1">
          <mxGeometry x="250" y="725.25" width="100" height="40" as="geometry" />
        </mxCell>
        <mxCell id="Y82aZck7Xs4e-HQAe_K5-29" value="" style="endArrow=none;html=1;rounded=0;" parent="1" source="Y82aZck7Xs4e-HQAe_K5-28" target="FxkLSMrradobIDmeh1Es-4" edge="1">
          <mxGeometry relative="1" as="geometry">
            <mxPoint x="560" y="463.5" as="sourcePoint" />
            <mxPoint x="720" y="463.5" as="targetPoint" />
          </mxGeometry>
        </mxCell>
        <mxCell id="Y82aZck7Xs4e-HQAe_K5-30" value="" style="endArrow=none;html=1;rounded=0;" parent="1" source="FxkLSMrradobIDmeh1Es-4" target="Y82aZck7Xs4e-HQAe_K5-27" edge="1">
          <mxGeometry relative="1" as="geometry">
            <mxPoint x="560" y="463.5" as="sourcePoint" />
            <mxPoint x="720" y="463.5" as="targetPoint" />
          </mxGeometry>
        </mxCell>
        <mxCell id="Y82aZck7Xs4e-HQAe_K5-34" value="" style="endArrow=none;html=1;rounded=0;" parent="1" source="FxkLSMrradobIDmeh1Es-34" target="Y82aZck7Xs4e-HQAe_K5-1" edge="1">
          <mxGeometry relative="1" as="geometry">
            <mxPoint x="590" y="330" as="sourcePoint" />
            <mxPoint x="750" y="330" as="targetPoint" />
          </mxGeometry>
        </mxCell>
        <mxCell id="Y82aZck7Xs4e-HQAe_K5-35" value="M" style="text;html=1;align=center;verticalAlign=middle;resizable=0;points=[];autosize=1;strokeColor=none;fillColor=none;" parent="1" vertex="1">
          <mxGeometry x="620" y="380" width="30" height="30" as="geometry" />
        </mxCell>
        <mxCell id="Y82aZck7Xs4e-HQAe_K5-36" value="Табельный номер сотрудника" style="ellipse;whiteSpace=wrap;html=1;align=center;fontStyle=4" parent="1" vertex="1">
          <mxGeometry x="470" y="386.5" width="110" height="60" as="geometry" />
        </mxCell>
        <mxCell id="Y82aZck7Xs4e-HQAe_K5-37" value="" style="endArrow=none;html=1;rounded=0;" parent="1" source="Y82aZck7Xs4e-HQAe_K5-36" target="FxkLSMrradobIDmeh1Es-34" edge="1">
          <mxGeometry relative="1" as="geometry">
            <mxPoint x="590" y="330" as="sourcePoint" />
            <mxPoint x="750" y="330" as="targetPoint" />
          </mxGeometry>
        </mxCell>
        <mxCell id="Y82aZck7Xs4e-HQAe_K5-39" value="M" style="text;html=1;align=center;verticalAlign=middle;resizable=0;points=[];autosize=1;strokeColor=none;fillColor=none;" parent="1" vertex="1">
          <mxGeometry x="604.5" y="81" width="30" height="30" as="geometry" />
        </mxCell>
        <mxCell id="Y82aZck7Xs4e-HQAe_K5-42" value="1" style="text;html=1;align=center;verticalAlign=middle;resizable=0;points=[];autosize=1;strokeColor=none;fillColor=none;" parent="1" vertex="1">
          <mxGeometry x="690" y="440" width="30" height="30" as="geometry" />
        </mxCell>
        <mxCell id="Y82aZck7Xs4e-HQAe_K5-43" value="M" style="text;html=1;align=center;verticalAlign=middle;resizable=0;points=[];autosize=1;strokeColor=none;fillColor=none;" parent="1" vertex="1">
          <mxGeometry x="862.5" y="561.75" width="30" height="30" as="geometry" />
        </mxCell>
        <mxCell id="Y82aZck7Xs4e-HQAe_K5-46" value="M" style="text;html=1;align=center;verticalAlign=middle;resizable=0;points=[];autosize=1;strokeColor=none;fillColor=none;" parent="1" vertex="1">
          <mxGeometry x="485.5" y="78" width="30" height="30" as="geometry" />
        </mxCell>
        <mxCell id="EzKpJZm47mHmIY9EPi6W-1" value="Состав закупки" style="shape=rhombus;perimeter=rhombusPerimeter;whiteSpace=wrap;html=1;align=center;" parent="1" vertex="1">
          <mxGeometry x="660" y="111" width="120" height="60" as="geometry" />
        </mxCell>
        <mxCell id="EzKpJZm47mHmIY9EPi6W-2" value="" style="endArrow=none;html=1;rounded=0;" parent="1" source="EzKpJZm47mHmIY9EPi6W-1" target="9Dlz0vJ4_yE0FrE6_wMp-16" edge="1">
          <mxGeometry relative="1" as="geometry">
            <mxPoint x="520" y="300" as="sourcePoint" />
            <mxPoint x="680" y="300" as="targetPoint" />
          </mxGeometry>
        </mxCell>
        <mxCell id="sZgcf_vkVkof7ML3Jeav-1" value="M" style="text;html=1;align=center;verticalAlign=middle;resizable=0;points=[];autosize=1;strokeColor=none;fillColor=none;" vertex="1" parent="1">
          <mxGeometry x="840" y="183" width="30" height="30" as="geometry" />
        </mxCell>
        <mxCell id="sZgcf_vkVkof7ML3Jeav-2" value="Составление графика работы" style="shape=rhombus;perimeter=rhombusPerimeter;whiteSpace=wrap;html=1;align=center;" vertex="1" parent="1">
          <mxGeometry x="418" y="496.75" width="165" height="103.25" as="geometry" />
        </mxCell>
        <mxCell id="sZgcf_vkVkof7ML3Jeav-3" value="" style="endArrow=none;html=1;rounded=0;" edge="1" parent="1" source="FxkLSMrradobIDmeh1Es-4" target="sZgcf_vkVkof7ML3Jeav-2">
          <mxGeometry relative="1" as="geometry">
            <mxPoint x="460" y="600" as="sourcePoint" />
            <mxPoint x="620" y="600" as="targetPoint" />
          </mxGeometry>
        </mxCell>
        <mxCell id="sZgcf_vkVkof7ML3Jeav-4" value="" style="endArrow=none;html=1;rounded=0;" edge="1" parent="1" source="sZgcf_vkVkof7ML3Jeav-2" target="Y82aZck7Xs4e-HQAe_K5-1">
          <mxGeometry relative="1" as="geometry">
            <mxPoint x="460" y="600" as="sourcePoint" />
            <mxPoint x="620" y="600" as="targetPoint" />
          </mxGeometry>
        </mxCell>
        <mxCell id="sZgcf_vkVkof7ML3Jeav-6" value="" style="endArrow=none;html=1;rounded=0;" edge="1" parent="1" source="EzKpJZm47mHmIY9EPi6W-1" target="sZgcf_vkVkof7ML3Jeav-7">
          <mxGeometry relative="1" as="geometry">
            <mxPoint x="680" y="300" as="sourcePoint" />
            <mxPoint x="840" y="300" as="targetPoint" />
          </mxGeometry>
        </mxCell>
        <mxCell id="sZgcf_vkVkof7ML3Jeav-7" value="Код ингредиента" style="ellipse;whiteSpace=wrap;html=1;align=center;fontStyle=4" vertex="1" parent="1">
          <mxGeometry x="710" y="218" width="100" height="40" as="geometry" />
        </mxCell>
        <mxCell id="sZgcf_vkVkof7ML3Jeav-8" value="" style="endArrow=none;html=1;rounded=0;" edge="1" parent="1" source="EzKpJZm47mHmIY9EPi6W-1" target="sZgcf_vkVkof7ML3Jeav-9">
          <mxGeometry relative="1" as="geometry">
            <mxPoint x="680" y="300" as="sourcePoint" />
            <mxPoint x="840" y="300" as="targetPoint" />
          </mxGeometry>
        </mxCell>
        <mxCell id="sZgcf_vkVkof7ML3Jeav-9" value="ID закупки" style="ellipse;whiteSpace=wrap;html=1;align=center;fontStyle=4" vertex="1" parent="1">
          <mxGeometry x="845" y="113.5" width="100" height="40" as="geometry" />
        </mxCell>
        <mxCell id="sZgcf_vkVkof7ML3Jeav-10" value="M" style="text;html=1;align=center;verticalAlign=middle;resizable=0;points=[];autosize=1;strokeColor=none;fillColor=none;" vertex="1" parent="1">
          <mxGeometry x="405" y="630" width="30" height="30" as="geometry" />
        </mxCell>
        <mxCell id="sZgcf_vkVkof7ML3Jeav-12" value="M" style="text;html=1;align=center;verticalAlign=middle;resizable=0;points=[];autosize=1;strokeColor=none;fillColor=none;" vertex="1" parent="1">
          <mxGeometry x="620" y="440" width="30" height="30" as="geometry" />
        </mxCell>
        <mxCell id="sZgcf_vkVkof7ML3Jeav-13" value="ID смены" style="ellipse;whiteSpace=wrap;html=1;align=center;fontStyle=4" vertex="1" parent="1">
          <mxGeometry x="569.5" y="601.75" width="100" height="47.5" as="geometry" />
        </mxCell>
        <mxCell id="sZgcf_vkVkof7ML3Jeav-14" value="" style="endArrow=none;html=1;rounded=0;" edge="1" parent="1" source="sZgcf_vkVkof7ML3Jeav-2" target="sZgcf_vkVkof7ML3Jeav-13">
          <mxGeometry relative="1" as="geometry">
            <mxPoint x="500" y="500" as="sourcePoint" />
            <mxPoint x="660" y="500" as="targetPoint" />
          </mxGeometry>
        </mxCell>
        <mxCell id="sZgcf_vkVkof7ML3Jeav-15" value="Табельный номер сотрудника" style="ellipse;whiteSpace=wrap;html=1;align=center;fontStyle=4" vertex="1" parent="1">
          <mxGeometry x="292" y="560" width="113" height="56.75" as="geometry" />
        </mxCell>
        <mxCell id="sZgcf_vkVkof7ML3Jeav-16" value="" style="endArrow=none;html=1;rounded=0;" edge="1" parent="1" source="sZgcf_vkVkof7ML3Jeav-15" target="sZgcf_vkVkof7ML3Jeav-2">
          <mxGeometry relative="1" as="geometry">
            <mxPoint x="500" y="500" as="sourcePoint" />
            <mxPoint x="660" y="500" as="targetPoint" />
          </mxGeometry>
        </mxCell>
        <mxCell id="sZgcf_vkVkof7ML3Jeav-17" value="Должность" style="ellipse;whiteSpace=wrap;html=1;align=center;" vertex="1" parent="1">
          <mxGeometry x="800" y="446.75" width="100" height="40" as="geometry" />
        </mxCell>
        <mxCell id="sZgcf_vkVkof7ML3Jeav-18" value="" style="endArrow=none;html=1;rounded=0;" edge="1" parent="1" source="Y82aZck7Xs4e-HQAe_K5-1" target="sZgcf_vkVkof7ML3Jeav-17">
          <mxGeometry relative="1" as="geometry">
            <mxPoint x="510" y="370" as="sourcePoint" />
            <mxPoint x="670" y="370" as="targetPoint" />
          </mxGeometry>
        </mxCell>
      </root>
    </mxGraphModel>
  </diagram>
</mxfile>
